# xmcd
#
# Track frame offsets: 
#        150
#        15711
#        32426
#        48804
#        61397
#        78826
#        92432
#        113066
#        136815
#        154633
#
# Disc length: 2273 seconds
#
# Revision: 0
# Processed by: cddbd v1.5.2PL0 Copyright (c) Steve Scherf et al.
# Submitted via: ExactAudioCopy v1.0b4
#
DISCID=6608df0a
DTITLE=Joel Zoss - Florida Blues
DYEAR=2015
DGENRE=Blues
TTITLE0=Rhave You Seen My Rider
TTITLE1=Papers Of Light
TTITLE2=Vodka And Red Bull
TTITLE3=The Riddle Song
TTITLE4=Street Vet Chant
TTITLE5=Key To The Highway
TTITLE6=Two Fish
TTITLE7=Albert's Song
TTITLE8=Goodnight Irene
TTITLE9=Follow Me I'll Turn Your Money Green
EXTD=
EXTT0=
EXTT1=
EXTT2=
EXTT3=
EXTT4=
EXTT5=
EXTT6=
EXTT7=
EXTT8=
EXTT9=
PLAYORDER=
